<svg width="32" height="32" viewBox="0 0 32 32" fill="none" xmlns="http://www.w3.org/2000/svg">
<rect width="32" height="32" rx="8" fill="black"/>
<path d="M15.8546 4C19.7354 4 22.891 6.67472 22.9637 10.3974C23 11.4454 22.2384 12.0241 21.4041 12.0241C20.6061 12.0241 19.9172 11.4462 19.8808 10.4699C19.8445 8.37308 18.0676 6.81879 15.8183 6.81879C13.7143 6.81879 12.1192 8.30063 12.1192 10.325C12.1192 12.5296 13.6061 13.506 16.6889 14.6264C19.989 15.8193 23 17.2287 23 21.4215C23 25.0725 20.1344 28 16.1454 28C12.2282 28 9 25.2528 9 21.5301C9 19.2168 10.1243 17.5901 11.2122 17.5901C12.1555 17.5901 12.7354 18.2042 12.7354 19.0357C12.7354 19.7585 12.1192 20.0837 12.1192 21.3853C12.1192 23.6986 14.0051 25.1804 16.1454 25.1804C18.3939 25.1804 19.8808 23.6261 19.8808 21.7467C19.8808 19.4333 18.3939 18.4578 15.3111 17.3728C11.8656 16.1453 9 14.6626 9 10.5785C9 6.89204 11.9738 4 15.8546 4Z" fill="#00D639"/>
</svg>
